<svg xmlns="http://www.w3.org/2000/svg" width="1200" height="1200" viewBox="0 0 1200 1200" version="1.1">
	<path d="M 591 329.535 C 585.080 331.046, 252.928 496.560, 244.541 502.178 C 228.308 513.054, 223.706 536.837, 234.515 554 C 239.939 562.613, 243.857 564.925, 303.929 594.964 L 361.963 623.985 362.232 700.243 L 362.500 776.500 365.235 782.338 C 368.569 789.456, 370.182 791.409, 381 801.429 C 413.324 831.370, 457.445 855.013, 504 867.343 C 520.483 871.708, 539.207 875.383, 556.500 877.648 C 572.438 879.735, 622.994 880.067, 638.500 878.187 C 712.038 869.268, 773.276 843.213, 819 801.389 C 828.883 792.349, 832.016 788.633, 835.192 782.185 L 837.500 777.500 837.774 700.741 L 838.048 623.983 866.017 609.991 C 881.400 602.296, 894.214 596, 894.493 596 C 894.772 596, 895 627.868, 895 666.818 C 895 744.572, 894.864 742.645, 901.122 753.671 C 904.895 760.319, 909.814 764.587, 917.970 768.288 C 929 773.294, 943.381 772.163, 954.062 765.451 C 959.622 761.956, 966.667 753.462, 969.196 747.202 L 971.500 741.500 971.785 638 C 971.965 572.970, 971.702 532.120, 971.078 528.097 C 969.776 519.702, 965.738 511.643, 959.918 505.823 C 955.723 501.627, 936.887 491.955, 785.069 416.038 C 686.933 366.964, 612.523 330.329, 609.251 329.477 C 602.360 327.682, 598.209 327.695, 591 329.535 M 475.502 471.680 L 352.503 533.250 476.250 595.125 L 599.997 657 723.500 595.251 L 847.002 533.503 723.751 471.807 C 655.963 437.874, 600.050 410.110, 599.500 410.110 C 598.950 410.110, 543.151 437.817, 475.502 471.680 M 438 705.826 L 438 749.638 447.750 756.786 C 478.607 779.408, 516.752 794.119, 561.500 800.656 C 576.483 802.845, 621.610 803.175, 635.500 801.198 C 676.091 795.420, 708.843 784.428, 737.743 766.885 C 744.635 762.702, 759.906 751.428, 761.235 749.542 C 762.377 747.922, 762.173 663, 761.027 663 C 760.492 663, 726.491 679.763, 685.470 700.250 L 610.885 737.500 599.978 737.500 L 589.071 737.500 513.536 699.757 L 438 662.014 438 705.826" stroke="none" fill="#000000" fill-rule="evenodd"/>
</svg>